<?xml version="1.0" encoding="utf-8"?>
<!-- Generator: Adobe Illustrator 23.0.0, SVG Export Plug-In . SVG Version: 6.00 Build 0)  -->
<svg version="1.1" id="Layer_1" xmlns="http://www.w3.org/2000/svg" xmlns:xlink="http://www.w3.org/1999/xlink" x="0px" y="0px"
	 viewBox="0 0 164 203" style="enable-background:new 0 0 164 203;" xml:space="preserve">
<style type="text/css">
	.st0{clip-path:url(#SVGID_2_);}
	.st1{fill:#32B34B;}
	.st2{fill:#FFFFFF;}
	.st3{fill:none;stroke:#000000;stroke-width:0.3;}
</style>
<g>
	<defs>
		<polygon id="SVGID_1_" points="16.5,24.5 -2.5,27.5 -0.5,157.5 41.5,193.5 78.5,203.5 121.5,194.5 182.5,137.5 163.5,-3.5 
			116.5,0.5 92.5,21.5 		"/>
	</defs>
	<clipPath id="SVGID_2_">
		<use xlink:href="#SVGID_1_"  style="overflow:visible;"/>
	</clipPath>
	<g class="st0">
		<g>
			<g>
				<path class="st1" d="M78.4,200.1c-38,0-73.9-35.9-73.9-73.9c0-38.4-1-95.5-1-96.1l0-0.5l0.5,0c0,0,2.3-0.2,5.9-0.2
					c8.9,0,26.1,1.1,41.1,8.8c18.6,9.4,28,25.6,28,48.1v113.9H78.4z"/>
				<path class="st2" d="M9.8,29.8c17.5,0,68.6,4.4,68.6,56.4c0,71.3,0,71.3,0,113.4C41.7,199.6,5,165,5,126.2S4,30,4,30
					S6.1,29.8,9.8,29.8 M9.8,28.8v1V28.8L9.8,28.8C6.1,28.8,4,29,3.9,29l-0.9,0.1l0,0.9c0,0.6,1,57.7,1,96.1
					c0,18.6,8.5,37.5,23.2,52c14.5,14.3,33.2,22.4,51.2,22.4h1v-1V86.2c0-22.7-9.5-39-28.3-48.5C36,30,18.7,28.8,9.8,28.8L9.8,28.8z
					"/>
			</g>
			<line class="st3" x1="2.9" y1="-25.2" x2="2.9" y2="10.8"/>
			<line class="st3" x1="-51.1" y1="28.8" x2="-15.1" y2="28.8"/>
			<line class="st3" x1="-51.1" y1="200.6" x2="-15.1" y2="200.6"/>
			<line class="st3" x1="2.9" y1="254.6" x2="2.9" y2="218.6"/>
			<line class="st3" x1="79.4" y1="-25.2" x2="79.4" y2="10.8"/>
			<line class="st3" x1="133.4" y1="28.8" x2="97.4" y2="28.8"/>
			<line class="st3" x1="133.4" y1="200.6" x2="97.4" y2="200.6"/>
			<line class="st3" x1="79.4" y1="254.6" x2="79.4" y2="218.6"/>
		</g>
		<g>
			<g>
				<path class="st1" d="M84.4,200.1v-1c0-18.3-0.4-33-0.8-50C83,127,82.4,102,82.4,61.7c0-53.2,53.3-57.4,69.6-57.4
					c3.6,0,5.8,0.2,5.9,0.2l0.9,0.1l0,0.9c0,0.8,1,81.7,1,120.1c0,38.3-36.2,74.4-74.4,74.4H84.4z"/>
				<path class="st2" d="M152,5.3c3.6,0,5.8,0.2,5.8,0.2s1,81.2,1,120.1s-36.7,73.4-73.4,73.4c0-42.1-2-66.1-2-137.4
					C83.4,9.8,134.5,5.3,152,5.3 M152,3.3c-9,0-26.5,1.2-41.8,8.9C91.1,22,81.4,38.6,81.4,61.7c0,40.3,0.6,65.4,1.2,87.4
					c0.4,17,0.8,31.7,0.8,50v2h2c18.3,0,37.2-8.3,51.9-22.7c15-14.7,23.5-33.9,23.5-52.7c0-38.4-1-119.3-1-120.1l0-1.8L158,3.5
					C157.9,3.5,155.7,3.3,152,3.3L152,3.3z"/>
			</g>
			<line class="st3" x1="81.4" y1="-50.7" x2="81.4" y2="-14.7"/>
			<line class="st3" x1="27.4" y1="3.3" x2="63.4" y2="3.3"/>
			<line class="st3" x1="27.4" y1="201.1" x2="63.4" y2="201.1"/>
			<line class="st3" x1="81.4" y1="255.1" x2="81.4" y2="219.1"/>
			<line class="st3" x1="160.8" y1="-50.7" x2="160.8" y2="-14.7"/>
			<line class="st3" x1="214.8" y1="3.3" x2="178.8" y2="3.3"/>
			<line class="st3" x1="214.8" y1="201.1" x2="178.8" y2="201.1"/>
			<line class="st3" x1="160.8" y1="255.1" x2="160.8" y2="219.1"/>
		</g>
		<path class="st2" d="M27.7,75.1c0,0,27-4.8,48.7,9.7c3.3,2.2,7.7,2.2,11-0.1c6.8-4.6,21-11,47.3-10.9c0,0,0,47.9-32,52.6
			c0,0,12.6,14.4-20.7,53.1c0,0-32.3-28.9-21.5-52.7C60.7,126.7,34,126.5,27.7,75.1z"/>
		<path class="st1" d="M38.8,85.3c0,0,36.5-4.4,43.2,23.9c0,0,3.8-26.4,41.7-25c0,0-0.5,37.9-36.5,34.6c0,0,21.1,15.4-5.3,46.1
			c0,0-24.5-25-6.7-46.6C75.3,118.4,48.9,129,38.8,85.3z"/>
		<path class="st2" d="M59.6,101.6l13.8,11.6c3.6,2.8,5.8,7.1,6.2,11.6l1.9,12.3c0,0.5,0.7,0.5,0.8,0l1.2-12.4
			c0.4-4.2,2.4-8.1,5.6-10.8l14.3-12.2c0.4-0.3,0-0.9-0.4-0.6l-13.8,7.1c-4.6,2.4-10.2,2.4-14.8,0L60,101
			C59.6,100.8,59.2,101.4,59.6,101.6z"/>
	</g>
</g>
</svg>
