<?xml version="1.0" encoding="utf-8"?>
<!-- Generator: Adobe Illustrator 23.0.0, SVG Export Plug-In . SVG Version: 6.00 Build 0)  -->
<svg version="1.1" id="Layer_1" xmlns="http://www.w3.org/2000/svg" xmlns:xlink="http://www.w3.org/1999/xlink" x="0px" y="0px"
	 viewBox="0 0 164 203" style="enable-background:new 0 0 164 203;" xml:space="preserve">
<style type="text/css">
	.st0{fill:#32B34B;}
	.st1{fill:#FFFFFF;}
	.st2{fill:none;stroke:#000000;stroke-width:0.3;}
</style>
<g>
	<g>
		<path class="st0" d="M78.4,200.6c-38.26,0-74.44-36.18-74.44-74.44c0-38.43-0.99-95.53-1-96.1l-0.02-0.93l0.93-0.08
			c0.09-0.01,2.27-0.19,5.9-0.19c8.95,0,26.22,1.15,41.34,8.82C69.88,47.2,79.4,63.53,79.4,86.2v114.4H78.4z"/>
		<path class="st1" d="M9.77,29.85c17.52,0,68.63,4.45,68.63,56.35c0,71.28,0,71.28,0,113.4c-36.72,0-73.44-34.56-73.44-73.44
			s-1-96.12-1-96.12S6.15,29.85,9.77,29.85 M9.78,27.85v2V27.85L9.78,27.85c-3.67,0-5.9,0.19-5.99,0.2l-1.86,0.16l0.03,1.87
			c0.01,0.57,1,57.67,1,96.09c0,18.84,8.58,38.06,23.55,52.73c14.72,14.43,33.64,22.71,51.89,22.71h2v-2V86.2
			c0-23.08-9.7-39.7-28.84-49.42C36.27,29.01,18.82,27.85,9.78,27.85L9.78,27.85z"/>
	</g>
	<line class="st2" x1="1.93" y1="-26.15" x2="1.93" y2="9.85"/>
	<line class="st2" x1="-52.07" y1="27.85" x2="-16.07" y2="27.85"/>
	<line class="st2" x1="-52.07" y1="201.6" x2="-16.07" y2="201.6"/>
	<line class="st2" x1="1.93" y1="255.6" x2="1.93" y2="219.6"/>
	<line class="st2" x1="80.4" y1="-26.15" x2="80.4" y2="9.85"/>
	<line class="st2" x1="134.4" y1="27.85" x2="98.4" y2="27.85"/>
	<line class="st2" x1="134.4" y1="201.6" x2="98.4" y2="201.6"/>
	<line class="st2" x1="80.4" y1="255.6" x2="80.4" y2="219.6"/>
</g>
<g>
	<g>
		<path class="st0" d="M84.4,200.08v-1c0-18.29-0.37-32.98-0.8-49.99c-0.56-22.07-1.2-47.09-1.2-87.41
			c0-53.21,53.29-57.35,69.63-57.35c3.63,0,5.81,0.19,5.9,0.19l0.9,0.08l0.01,0.91c0.01,0.81,1,81.69,1,120.13
			c0,38.26-36.18,74.44-74.44,74.44H84.4z"/>
		<path class="st1" d="M152.03,5.33c3.62,0,5.81,0.19,5.81,0.19s1,81.24,1,120.12s-36.72,73.44-73.44,73.44c0-42.12-2-66.12-2-137.4
			C83.4,9.78,134.51,5.33,152.03,5.33 M152.03,3.33c-9.04,0-26.49,1.16-41.79,8.93C91.1,21.97,81.4,38.6,81.4,61.68
			c0,40.33,0.64,65.35,1.2,87.43c0.43,17,0.8,31.69,0.8,49.97v2h2c18.25,0,37.17-8.28,51.89-22.71
			c14.97-14.67,23.55-33.89,23.55-52.73c0-38.45-0.99-119.33-1-120.14l-0.02-1.81l-1.8-0.16C157.92,3.52,155.7,3.33,152.03,3.33
			L152.03,3.33z"/>
	</g>
	<line class="st2" x1="81.4" y1="-50.67" x2="81.4" y2="-14.67"/>
	<line class="st2" x1="27.4" y1="3.33" x2="63.4" y2="3.33"/>
	<line class="st2" x1="27.4" y1="201.08" x2="63.4" y2="201.08"/>
	<line class="st2" x1="81.4" y1="255.08" x2="81.4" y2="219.08"/>
	<line class="st2" x1="160.84" y1="-50.67" x2="160.84" y2="-14.67"/>
	<line class="st2" x1="214.84" y1="3.33" x2="178.84" y2="3.33"/>
	<line class="st2" x1="214.84" y1="201.08" x2="178.84" y2="201.08"/>
	<line class="st2" x1="160.84" y1="255.08" x2="160.84" y2="219.08"/>
</g>
<path class="st1" d="M27.74,75.1c0,0,27.04-4.79,48.74,9.7c3.34,2.23,7.71,2.16,11.04-0.07c6.82-4.58,21.05-10.98,47.3-10.94
	c0,0-0.02,47.93-31.98,52.56c0,0,12.62,14.36-20.65,53.08c0,0-32.35-28.9-21.47-52.68C60.72,126.74,34,126.52,27.74,75.1z"/>
<path class="st0" d="M38.8,85.32c0,0,36.52-4.4,43.24,23.92c0,0,3.8-26.4,41.72-24.96c0,0-0.48,37.92-36.48,34.56
	c0,0,21.12,15.36-5.28,46.08c0,0-24.48-24.96-6.72-46.56C75.28,118.36,48.88,129,38.8,85.32z"/>
<path class="st1" d="M59.55,101.65l13.77,11.61c3.61,2.83,5.84,7.06,6.16,11.63l1.86,12.31c0.03,0.48,0.73,0.49,0.78,0.01
	l1.21-12.37c0.41-4.19,2.43-8.05,5.63-10.78l14.32-12.2c0.35-0.3-0.02-0.86-0.43-0.65l-13.77,7.07c-4.64,2.39-10.15,2.39-14.8,0.01
	l-14.29-7.31C59.55,100.77,59.18,101.35,59.55,101.65z"/>
</svg>
