<?xml version="1.0" encoding="utf-8"?>
<!-- Generator: Adobe Illustrator 23.0.0, SVG Export Plug-In . SVG Version: 6.00 Build 0)  -->
<svg version="1.1" id="Logo_With_BG" xmlns="http://www.w3.org/2000/svg" xmlns:xlink="http://www.w3.org/1999/xlink" x="0px"
	 y="0px" viewBox="0 0 262.12 203.29" style="enable-background:new 0 0 262.12 203.29;" xml:space="preserve">
<style type="text/css">
	.st0{display:none;}
	.st1{display:inline;fill:#323232;}
	.st2{display:inline;fill:none;stroke:#FFFFFF;stroke-width:6;stroke-linecap:round;stroke-linejoin:round;}
	.st3{display:inline;}
	.st4{fill:#323232;}
	.st5{fill:#FFFFFF;}
</style>
<g id="BG_1_" class="st0">
	<path class="st1" d="M247.65,159c-15.39,12.88-53.64,31.95-115.62,34.26c-0.35,0.01-0.72,0.01-1.07,0
		C68.98,190.94,30.73,171.88,15.34,159c-2.88-2.41-4.51-6.01-4.51-9.77V55.71c0-3.76,1.63-7.36,4.51-9.77
		c15.39-12.88,53.64-31.95,115.62-34.26c0.35-0.01,0.72-0.01,1.07,0c61.98,2.31,100.23,21.38,115.62,34.26
		c2.88,2.41,4.51,6.01,4.51,9.77v93.52C252.16,152.99,250.53,156.58,247.65,159z"/>
	<path class="st2" d="M247.65,159c-15.39,12.88-53.64,31.95-115.62,34.26c-0.35,0.01-0.72,0.01-1.07,0
		C68.98,190.94,30.73,171.88,15.34,159c-2.88-2.41-4.51-6.01-4.51-9.77V55.71c0-3.76,1.63-7.36,4.51-9.77
		c15.39-12.88,53.64-31.95,115.62-34.26c0.35-0.01,0.72-0.01,1.07,0c61.98,2.31,100.23,21.38,115.62,34.26
		c2.88,2.41,4.51,6.01,4.51,9.77v93.52C252.16,152.99,250.53,156.58,247.65,159z"/>
	<g class="st3">
		<path class="st4" d="M131.49,11.66c0.18,0,0.36,0,0.53,0.01c61.98,2.31,100.23,21.38,115.62,34.26c2.88,2.41,4.51,6.01,4.51,9.77
			v93.52c0,3.76-1.63,7.36-4.51,9.77c-15.39,12.88-53.64,31.95-115.62,34.26c-0.18,0.01-0.36,0.01-0.53,0.01s-0.36,0-0.53-0.01
			C68.98,190.94,30.73,171.88,15.34,159c-2.88-2.41-4.51-6.01-4.51-9.77V55.71c0-3.76,1.63-7.36,4.51-9.77
			c15.39-12.88,53.64-31.95,115.62-34.26C131.14,11.67,131.32,11.66,131.49,11.66 M131.49,5.66c-0.25,0-0.51,0-0.76,0.01
			C71.59,7.89,30.35,25.54,11.49,41.33c-4.23,3.54-6.66,8.78-6.66,14.37v93.52c0,5.59,2.43,10.83,6.66,14.37
			c18.86,15.79,60.1,33.45,119.25,35.66c0.25,0.01,0.5,0.01,0.76,0.01s0.51,0,0.76-0.01c59.15-2.21,100.38-19.87,119.25-35.66
			c4.23-3.54,6.66-8.78,6.66-14.37V55.71c0-5.59-2.43-10.83-6.66-14.37C232.63,25.54,191.4,7.89,132.25,5.68
			C132,5.67,131.75,5.66,131.49,5.66L131.49,5.66z"/>
	</g>
</g>
<g id="Grey_Ridge">
	<g>
		<path class="st5" d="M55.08,116.45c-0.9,0.67-3.43,1.01-3.61,1.01c-2.3,0-4.12-0.48-5.46-1.45c-1.34-0.97-2.3-2.34-2.88-4.12
			c-0.57-1.78-0.86-3.84-0.86-6.19V94.31c0-2.44,0.29-4.54,0.88-6.3c0.32-0.97,0.81-1.8,1.4-2.52c-0.93,0.86-1.62,1.95-2.05,3.27
			c-0.59,1.76-0.88,3.86-0.88,6.3v11.38c0,2.35,0.29,4.42,0.86,6.19c0.57,1.78,1.53,3.15,2.88,4.12c1.34,0.97,3.16,1.45,5.46,1.45
			c1.51,0,2.72-0.34,3.61-1.01c0.51-0.38,0.94-0.83,1.31-1.33C55.53,116.07,55.32,116.27,55.08,116.45z"/>
		<path class="st5" d="M52.18,104.43h3.32v3.61c0,0.98-0.09,1.86-0.27,2.63c-0.18,0.77-0.51,1.38-0.99,1.83s-1.15,0.67-2.02,0.67
			c-0.87,0-1.53-0.21-2-0.63s-0.78-1.01-0.94-1.76c-0.17-0.76-0.25-1.61-0.25-2.56V93.13c0-0.84,0.06-1.63,0.17-2.37
			c0.11-0.74,0.38-1.35,0.8-1.83c0.42-0.48,1.09-0.71,2.02-0.71c0.9,0,1.55,0.2,1.95,0.59c0.41,0.39,0.67,0.93,0.78,1.62
			c0.11,0.69,0.17,1.48,0.17,2.37v2.39h6.76v-0.75h-6.11v-2.39c0-0.9-0.06-1.69-0.17-2.37c-0.11-0.69-0.37-1.22-0.78-1.62
			c-0.41-0.39-1.06-0.59-1.95-0.59c-0.43,0-0.81,0.06-1.13,0.16c0.14-0.35,0.42-1.66,0.65-1.93c0.42-0.48,1.09-0.71,2.02-0.71
			c0.9,0,1.55,0.2,1.95,0.59c0.41,0.39,1.17,0.93,1.28,1.62c0.11,0.69,0.17,1.48,0.17,2.37l-0.1,1.89h4.66
			c-0.03-1.93-0.82-2.12-1.41-3.54c-0.62-1.48-1.63-2.63-3.04-3.44c-1.41-0.81-3.34-1.22-5.77-1.22c-2.52,0-4.52,0.48-5.99,1.43
			c-0.06,0.04-0.11,0.09-0.17,0.13c-0.33,0.52-0.62,1.08-0.83,1.71c-0.59,1.76-0.88,3.86-0.88,6.3v11.38c0,2.35,0.29,4.42,0.86,6.2
			c0.57,1.78,1.53,3.15,2.88,4.12c1.34,0.97,3.16,1.45,5.46,1.45c1.33,0,2.41-0.28,3.26-0.8c0.1-0.18,0.19-0.35,0.28-0.54l0.06,3.07
			h4.54l0.36-0.75h-3.89l-0.35-2.54c0.58-0.57,1.03-1.23,1.37-2l0.42,2.57h2.45v-14.75h-6.99v0.97h2.82v4.61
			c0,0.98-0.09,1.86-0.27,2.63c-0.18,0.77-0.51,1.38-0.99,1.83c-0.2,0.19-0.45,0.33-0.73,0.44c0.11-0.24,0.21-0.5,0.28-0.79
			c0.18-0.77,0.27-1.64,0.27-2.63v-3.61h-3.32"/>
	</g>
	<g>
		<polygon class="st5" points="65.68,116.95 65.68,93.43 65.03,93.43 65.03,117.7 71.37,117.7 71.37,116.95 		"/>
		<path class="st5" d="M77.19,98.53c-0.39-0.1-0.8-0.15-1.22-0.15c-0.78,0-1.5,0.2-2.14,0.61c-0.12,0.08-0.24,0.17-0.36,0.25
			c0.56-0.75,1.16-2.33,1.8-2.73c0.64-0.41,1.36-0.61,2.14-0.61c0.06,0,0.12,0.01,0.18,0.02v-2.67c-0.14-0.06-0.29-0.09-0.44-0.1
			s-0.33-0.02-0.52-0.02c-0.88,0-1.66,0.73-2.35,1.18c-0.27,0.39-0.54,0.82-0.81,1.29v-1.13c-0.69,0.68-1.39,1.62-2.09,2.85v-3.91
			h-3.25v21.05h3.25v-12.99c0.56-0.76,1.16-1.34,1.81-1.74c0.64-0.41,1.36-0.61,2.14-0.61c0.42,0,0.83,0.05,1.22,0.15
			c0.39,0.1,0.74,0.22,1.05,0.36v-0.99C77.46,98.61,77.33,98.57,77.19,98.53z"/>
	</g>
	<g>
		<path class="st5" d="M89.36,112.41c-0.14,0.39-0.36,0.68-0.65,0.86c-0.29,0.18-0.64,0.27-1.03,0.27c-0.42,0-0.77-0.09-1.05-0.27
			c-0.28-0.18-0.5-0.5-0.65-0.94c-0.15-0.45-0.23-1.02-0.23-1.72v-4.7l0.46-0.34v-0.75l1.63,0.34v-1.48h7.66v-2.02
			c0-1.85-0.27-3.42-0.82-4.7c-0.55-1.29-1.39-2.27-2.54-2.94c-1.15-0.67-2.65-1.01-4.49-1.01c-1.74,0-3.22,0.33-4.45,0.99
			c-0.18,0.09-0.33,0.21-0.5,0.32c-0.06,0.11-0.13,0.2-0.19,0.31c-0.62,1.25-0.92,2.79-0.92,4.64v8.15c0,1.79,0.31,3.33,0.92,4.6
			c0.62,1.27,1.53,2.24,2.73,2.9c1.2,0.66,2.7,0.99,4.49,0.99c1.98,0,3.58-0.42,4.83-1.22c0.59-1.12,0.89-2.48,0.89-4.12v-2.02
			h-3.79v0.08c0,0.64-0.07,1.16-0.21,1.55c-0.14,0.39-0.36,0.68-0.65,0.86 M88.05,96.68c0.14-0.49,0.34-0.83,0.61-1.03
			c0.27-0.2,0.61-0.29,1.03-0.29c0.45,0,0.82,0.09,1.11,0.27c0.29,0.18,0.51,0.49,0.65,0.92c0.14,0.43,0.21,1,0.21,1.7v2.39h-1.44
			v-0.92c0-0.7-0.07-1.27-0.21-1.7c-0.14-0.43-0.36-0.74-0.65-0.92c-0.29-0.18-0.67-0.27-1.11-0.27c-0.09,0-0.16,0.02-0.24,0.03
			C88.02,96.8,88.03,96.74,88.05,96.68z M85.75,100.99c0-0.9,0.07-1.59,0.21-2.08c0.14-0.49,0.34-0.83,0.61-1.03
			c0.27-0.2,0.61-0.29,1.03-0.29c0.45,0,0.82,0.09,1.11,0.27c0.29,0.18,0.51,0.49,0.65,0.92c0.14,0.43,0.21,1,0.21,1.7v2.39h-3.82
			V100.99z"/>
		<path class="st5" d="M88.19,117.62c-1.79,0-3.29-0.33-4.49-0.99c-1.2-0.66-2.11-1.62-2.73-2.9s-0.92-2.81-0.92-4.6v-8.15
			c0-1.85,0.31-3.4,0.92-4.64c0.18-0.36,0.39-0.69,0.62-1c-0.51,0.5-0.94,1.08-1.27,1.75c-0.62,1.25-0.92,2.79-0.92,4.64v8.15
			c0,1.79,0.31,3.33,0.92,4.6c0.62,1.27,1.53,2.24,2.73,2.9c1.2,0.66,2.7,0.99,4.49,0.99c2.52,0,4.45-0.64,5.8-1.93
			c0.24-0.23,0.44-0.48,0.64-0.74C92.63,116.98,90.7,117.62,88.19,117.62z"/>
	</g>
	<g>
		<path class="st5" d="M110.24,93.48l-2.14,12.68l-0.66-3.15l1.61-9.53h-0.52l-2.52,14.91l-3.11-14.91h-3.32l4.94,18.27
			c0.22,0.9,0.43,1.71,0.61,2.44s0.27,1.3,0.27,1.72c0,0.53-0.15,0.95-0.44,1.24c-0.24,0.24-0.6,0.4-1.04,0.52
			c0.01-0.1,0.04-0.18,0.04-0.29c0-0.42-0.09-0.99-0.27-1.72c-0.18-0.73-0.39-1.54-0.61-2.44l-5.34-19.75h-0.85l5.54,20.5
			c0.22,0.9,0.43,1.71,0.61,2.44s0.27,1.3,0.27,1.72c0,0.53-0.15,0.95-0.44,1.24s-0.73,0.5-1.32,0.61
			c-0.06,0.01-0.12,0.02-0.18,0.03v2.37h1.34c1.46,0,2.74-0.18,3.84-0.55c0.53-0.17,1-0.43,1.45-0.72c0.4-0.73,0.72-1.58,0.93-2.6
			l5.63-25.03H110.24z"/>
		<path class="st5" d="M105.22,123.25c-1.11,0.36-2.39,0.55-3.84,0.55h-1.34v-3.71c-0.21,0.01-0.42,0.01-0.65,0.01v4.45h1.34
			c1.46,0,2.74-0.18,3.84-0.55c1.11-0.36,2.04-0.99,2.81-1.87c0.1-0.11,0.18-0.25,0.28-0.37
			C106.97,122.44,106.16,122.94,105.22,123.25z"/>
	</g>
	<g>
		<polygon class="st5" points="128.66,117.05 128.66,83.78 128,83.78 128,117.8 134.94,117.8 134.94,117.05 		"/>
		<path class="st5" d="M146.06,99.41l-0.15-0.53c0.36-0.16,0.68-0.34,0.99-0.53c0.32-0.59,0.57-1.25,0.73-1.97
			c0.24-1.08,0.36-2.32,0.36-3.72c0-2.32-0.44-4.14-1.32-5.46c-0.88-1.32-2.14-2.23-3.78-2.75c-1.64-0.52-3.61-0.78-5.9-0.78h-6.73
			v31.79h4.84v-13.19h2.44l3.91,15.41h7.1l-0.21-0.75h-6.24l-3.91-15.41h-1v-1.48h2.44l3.91,15.41h4.38l-4.07-14.36
			c1.09-0.48,1.34-0.32,1.94-1.11 M137.17,86.16h2.35c1.57,0,2.64,0.41,3.21,1.24c0.57,0.83,0.86,2.02,0.86,3.59
			c0,1.09-0.13,2.01-0.4,2.75c-0.27,0.74-0.72,1.3-1.36,1.66c-0.06,0.03-0.13,0.06-0.2,0.09c0.04-0.09,0.09-0.17,0.12-0.27
			c0.27-0.74,0.4-1.66,0.4-2.75c0-1.57-0.29-2.77-0.86-3.59c-0.57-0.83-1.64-1.24-3.21-1.24h-0.91V86.16z M135.09,98.17v-9.79h2.35
			c1.57,0,2.64,0.41,3.21,1.24c0.57,0.83,0.86,2.02,0.86,3.59c0,1.09-0.13,2.01-0.4,2.75c-0.27,0.74-0.72,1.3-1.36,1.66
			c-0.64,0.36-1.53,0.55-2.65,0.55H135.09z"/>
	</g>
	<g>
		<polygon class="st5" points="158.46,88.79 152.73,88.79 152.73,84.79 152.08,84.79 152.08,89.54 158.46,89.54 		"/>
		<polygon class="st5" points="152.77,117.05 152.77,93.53 152.12,93.53 152.12,117.8 158.46,117.8 158.46,117.05 		"/>
	</g>
	<g>
		<path class="st5" d="M173.49,116.95v-1.81c-0.7,0.67-1.43,1.21-2.21,1.62c-0.77,0.41-1.56,0.61-2.37,0.61
			c-1.85,0-3.27-0.66-4.26-1.97s-1.49-3.33-1.49-6.05v-8.9c0-1.57,0.2-2.97,0.61-4.2c0.24-0.74,0.58-1.38,0.98-1.93
			c-0.71,0.69-1.26,1.57-1.63,2.68c-0.41,1.23-0.61,2.63-0.61,4.2v8.9c0,2.72,0.5,4.73,1.49,6.05s2.42,1.97,4.26,1.97
			c0.81,0,1.6-0.2,2.37-0.61c0.77-0.41,1.5-0.94,2.21-1.62v1.81h6.34v-0.75H173.49z"/>
		<path class="st5" d="M165.21,94.77c-0.41,1.23-0.61,2.63-0.61,4.2v8.9c0,2.72,0.5,4.73,1.49,6.05s2.42,1.97,4.26,1.97
			c0.81,0,1.6-0.2,2.37-0.61c0.77-0.41,1.5-0.94,2.21-1.62v1.81h4.25V83.68h-4.25v9.03c-0.44-0.38-0.93-0.71-1.44-1v-8.03h-0.65
			v11.23c0.04,0,0.07-0.01,0.11-0.01c0.34,0,0.67,0.06,1.01,0.19s0.66,0.27,0.97,0.44v15.46c-0.36,0.22-0.72,0.4-1.07,0.53
			c-0.13,0.05-0.25,0.08-0.37,0.1V97c-0.31-0.17-0.63-0.31-0.97-0.44s-0.67-0.19-1.01-0.19c-0.1,0-0.19,0.02-0.28,0.03
			c0.06-0.2,0.11-0.41,0.19-0.58c0.27-0.57,0.74-0.87,1.38-0.91c-0.64-0.55-1.34-1-2.11-1.36c-0.78-0.36-1.61-0.55-2.48-0.55
			c-0.96,0-1.79,0.19-2.49,0.57C165.53,93.95,165.35,94.34,165.21,94.77z M168.9,100.27c0-0.87,0.15-1.61,0.44-2.23
			c0.29-0.62,0.8-0.92,1.53-0.92c0.34,0,0.67,0.06,1.01,0.19s0.66,0.27,0.97,0.44v15.46c-0.36,0.22-0.72,0.4-1.07,0.52
			c-0.35,0.13-0.67,0.19-0.95,0.19c-0.5,0-0.9-0.15-1.18-0.44c-0.28-0.29-0.48-0.7-0.59-1.22c-0.11-0.52-0.17-1.1-0.17-1.74V100.27z
			"/>
	</g>
	<g>
		<path class="st5" d="M197.45,124.39c-1.47,0.53-3.38,0.8-5.73,0.8c-1.76,0-3.3-0.18-4.6-0.55c-1.3-0.36-2.32-0.9-3.04-1.62
			s-1.09-1.63-1.09-2.75c0-0.76,0.16-1.44,0.48-2.04c0.09-0.17,0.21-0.31,0.32-0.47c-0.39,0.37-0.73,0.76-0.97,1.22
			c-0.32,0.6-0.48,1.28-0.48,2.04c0,1.12,0.36,2.04,1.09,2.75s1.74,1.25,3.04,1.62c1.3,0.36,2.84,0.55,4.6,0.55
			c2.35,0,4.26-0.27,5.73-0.8c1.4-0.51,2.43-1.25,3.11-2.22C199.28,123.52,198.47,124.02,197.45,124.39z"/>
		<path class="st5" d="M200.24,96.16c-0.34,0.14,0.95-0.85,0.61-0.7c-0.08-0.22-0.16-0.45-0.26-0.65c0.33-0.19,0.74-0.4,1.22-0.62
			l-0.96-2.02l-0.84,0.38c-0.67,0.34-1.27,0.74-1.81,1.2s-0.94,0.9-1.22,1.32c-0.62-0.67-1.39-1.18-2.31-1.53
			c-0.92-0.35-2.02-0.52-3.28-0.52c-1.76,0-3.27,0.33-4.51,0.99c-0.2,0.11-0.38,0.23-0.57,0.36c-0.06,0.1-0.13,0.19-0.18,0.3
			c-0.64,1.26-0.97,2.8-0.97,4.62c0,1.57,0.21,2.87,0.63,3.91c0.42,1.04,1.05,1.9,1.89,2.6c-0.57,0.49-1.05,0.98-1.45,1.46
			c-0.83-0.7-1.46-1.56-1.88-2.59c-0.42-1.04-0.63-2.34-0.63-3.91c0-1.82,0.32-3.36,0.97-4.62c0.18-0.36,0.39-0.68,0.62-0.99
			c-0.51,0.5-0.93,1.07-1.27,1.74c-0.64,1.26-0.97,2.8-0.97,4.62c0,1.57,0.21,2.87,0.63,3.91c0.41,1,1.01,1.84,1.81,2.53
			c0.19-0.19,0.39-0.38,0.61-0.57c-0.15,0.19-0.29,0.37-0.42,0.56c-0.48,0.7-0.71,1.54-0.71,2.52c0,0.92,0.27,1.68,0.82,2.27
			c0.55,0.59,1.31,1.02,2.29,1.3c-0.67,0.34-1.3,0.73-1.87,1.18c-0.04,0.03-0.08,0.08-0.12,0.11c-0.72-0.27-1.3-0.64-1.74-1.11
			c-0.55-0.59-0.82-1.34-0.82-2.27c0-0.98,0.24-1.82,0.71-2.52c0.1-0.14,0.21-0.29,0.32-0.43c-0.38,0.4-0.7,0.79-0.97,1.18
			c-0.48,0.7-0.71,1.54-0.71,2.52c0,0.92,0.27,1.68,0.82,2.27c0.55,0.59,1.31,1.02,2.29,1.3c-0.43,0.21-0.82,0.46-1.21,0.71
			c-0.26,0.55-0.4,1.17-0.4,1.85c0,1.12,0.36,2.04,1.09,2.75s1.74,1.25,3.04,1.62c1.3,0.36,2.84,0.55,4.6,0.55
			c2.35,0,4.26-0.27,5.73-0.8c0.54-0.2,1.01-0.44,1.44-0.7c0.46-0.92,0.7-1.98,0.7-3.2c0-1.79-0.48-3.23-1.45-4.3
			s-2.47-1.73-4.51-1.95l-5.84-0.63c-0.84-0.08-1.42-0.22-1.74-0.42c-0.32-0.2-0.48-0.46-0.48-0.8c0-0.28,0.06-0.55,0.19-0.82
			c0.13-0.27,0.27-0.51,0.44-0.74c0.56,0.17,1.16,0.31,1.79,0.42c0.63,0.11,1.29,0.17,2,0.17c1.82,0,3.32-0.34,4.49-1.01
			c0.78-0.44,1.41-1.03,1.93-1.73c-0.38,0.37-0.8,0.7-1.28,0.98c-1.18,0.67-2.67,1.01-4.49,1.01c-0.7,0-1.37-0.06-2-0.17
			c-0.34-0.06-0.64-0.15-0.96-0.23c0-0.04-0.01-0.07-0.01-0.12c0-0.28,0.06-0.55,0.19-0.82c0.13-0.27,0.27-0.51,0.44-0.73
			c0.56,0.17,1.16,0.31,1.79,0.42s1.29,0.17,2,0.17c1.82,0,3.32-0.34,4.49-1.01c0.1-0.06,0.2-0.13,0.29-0.2
			c0.09-0.16,0.19-0.31,0.26-0.47c0.59-1.26,0.88-2.74,0.88-4.45c0-0.81-0.08-1.62-0.25-2.44c-0.17-0.81-0.39-1.51-0.67-2.1
			c0.34-0.2,0.75-0.41,1.24-0.63c0.49-0.22-0.65,0.7-0.16,0.5c0.49-0.2,0.88-0.34,1.16-0.42l-0.21-0.44
			C200.43,96.09,200.35,96.12,200.24,96.16z M189.97,115.27c0.22-0.25,0.48-0.49,0.76-0.71l4.37,0.42c0.92,0.08,1.64,0.21,2.16,0.38
			c0.52,0.17,0.88,0.38,1.09,0.65c0.21,0.27,0.32,0.59,0.32,0.99c0,0.81-0.41,1.36-1.22,1.64c-0.08,0.03-0.17,0.04-0.25,0.07
			c0.01-0.08,0.03-0.15,0.03-0.23c0-0.39-0.11-0.72-0.32-0.99c-0.21-0.27-0.57-0.48-1.09-0.65c-0.52-0.17-1.24-0.29-2.16-0.38
			l-4.22-0.41C189.57,115.77,189.75,115.51,189.97,115.27z M193,117.2c0.92,0.08,1.64,0.21,2.16,0.38c0.52,0.17,0.88,0.38,1.09,0.65
			c0.21,0.27,0.32,0.59,0.32,0.99c0,0.81-0.41,1.36-1.22,1.64c-0.81,0.28-1.99,0.42-3.53,0.42c-1.71,0-2.92-0.18-3.63-0.53
			c-0.71-0.35-1.07-0.86-1.07-1.53c0-0.34,0.07-0.64,0.21-0.92c0.14-0.28,0.32-0.55,0.55-0.8c0.22-0.25,0.48-0.49,0.76-0.71
			L193,117.2z M193.42,103.59c-0.06,0.59-0.15,1.06-0.29,1.43c-0.14,0.36-0.35,0.63-0.63,0.8c-0.28,0.17-0.64,0.25-1.09,0.25
			c-0.45,0-0.81-0.09-1.09-0.27c-0.28-0.18-0.49-0.46-0.63-0.84c-0.14-0.38-0.24-0.85-0.29-1.43c-0.06-0.57-0.08-1.25-0.08-2.04
			c0-0.81,0.03-1.51,0.08-2.1c0.06-0.59,0.15-1.06,0.29-1.43c0.14-0.36,0.36-0.63,0.65-0.8s0.65-0.25,1.07-0.25
			c0.45,0,0.81,0.08,1.09,0.25c0.28,0.17,0.49,0.44,0.63,0.82c0.14,0.38,0.24,0.85,0.29,1.43c0.06,0.57,0.08,1.27,0.08,2.08
			C193.51,102.3,193.48,103,193.42,103.59z M195.51,101.36c-0.06,0.59-0.15,1.06-0.29,1.43c-0.14,0.36-0.35,0.63-0.63,0.8
			c-0.18,0.11-0.42,0.17-0.68,0.21c0.07-0.28,0.13-0.59,0.16-0.96c0.06-0.59,0.08-1.29,0.08-2.1c0-0.81-0.03-1.5-0.08-2.08
			c-0.06-0.57-0.15-1.05-0.29-1.43c-0.14-0.38-0.35-0.65-0.63-0.82c-0.28-0.17-0.64-0.25-1.09-0.25c-0.15,0-0.28,0.02-0.42,0.05
			c0.04-0.17,0.08-0.34,0.13-0.47c0.14-0.36,0.36-0.63,0.65-0.8s0.65-0.25,1.07-0.25c0.45,0,0.81,0.08,1.09,0.25
			c0.28,0.17,0.49,0.44,0.63,0.82c0.14,0.38,0.24,0.85,0.29,1.43c0.06,0.57,0.08,1.27,0.08,2.08
			C195.6,100.08,195.57,100.78,195.51,101.36z"/>
	</g>
	<g>
		<path class="st5" d="M211.18,117.52c-1.79,0-3.29-0.33-4.49-0.99c-1.2-0.66-2.11-1.62-2.73-2.9s-0.92-2.81-0.92-4.6v-8.15
			c0-1.85,0.31-3.4,0.92-4.64c0.18-0.36,0.39-0.69,0.62-1c-0.51,0.5-0.94,1.08-1.27,1.75c-0.62,1.25-0.92,2.79-0.92,4.64v8.15
			c0,1.79,0.31,3.33,0.92,4.6s1.53,2.24,2.73,2.9c1.2,0.66,2.7,0.99,4.49,0.99c2.52,0,4.45-0.64,5.8-1.93
			c0.24-0.23,0.44-0.48,0.64-0.74C215.63,116.88,213.7,117.52,211.18,117.52z"/>
		<path class="st5" d="M212.41,112.41c-0.14,0.39-0.36,0.68-0.65,0.86c-0.29,0.18-0.64,0.27-1.03,0.27c-0.42,0-0.77-0.09-1.05-0.27
			c-0.28-0.18-0.5-0.5-0.65-0.94c-0.15-0.45-0.23-1.02-0.23-1.72v-4.7l0.71,0.54v-0.75l1.38-0.54v-1.48h7.65v-2.02
			c0-1.85-0.27-3.42-0.82-4.7c-0.55-1.29-1.39-2.27-2.54-2.94c-1.15-0.67-2.65-1.01-4.49-1.01c-1.74,0-3.22,0.33-4.45,0.99
			c-0.18,0.09-0.33,0.21-0.5,0.32c-0.06,0.11-0.13,0.2-0.19,0.31c-0.62,1.25-0.92,2.79-0.92,4.64v8.15c0,1.79,0.31,3.33,0.92,4.6
			c0.62,1.27,1.53,2.24,2.73,2.9c1.2,0.66,2.7,0.99,4.49,0.99c1.98,0,3.58-0.42,4.83-1.22c0.59-1.12,0.89-2.48,0.89-4.12v-2.02
			h-3.79v0.08c0,0.64-0.07,1.16-0.21,1.55c-0.14,0.39-0.36,0.68-0.65,0.86c-0.21,0.13-0.45,0.19-0.7,0.23 M211.09,96.68
			c0.14-0.49,0.34-0.83,0.61-1.03c0.27-0.2,0.61-0.29,1.03-0.29c0.45,0,0.82,0.09,1.11,0.27c0.29,0.18,0.51,0.49,0.65,0.92
			c0.14,0.43,0.21,1,0.21,1.7v2.39h-1.44v-0.92c0-0.7-0.07-1.27-0.21-1.7c-0.14-0.43-0.36-0.74-0.65-0.92
			c-0.29-0.18-0.67-0.27-1.11-0.27c-0.09,0-0.16,0.02-0.24,0.03C211.07,96.8,211.08,96.74,211.09,96.68z M208.8,100.99
			c0-0.9,0.07-1.59,0.21-2.08c0.14-0.49,0.34-0.83,0.61-1.03c0.27-0.2,0.61-0.29,1.03-0.29c0.45,0,0.82,0.09,1.11,0.27
			c0.29,0.18,0.51,0.49,0.65,0.92c0.14,0.43,0.21,1,0.21,1.7v2.39h-3.82V100.99z"/>
	</g>
	<path class="st5" d="M53.41,115.48c-2.3,0-4.12-0.48-5.46-1.45c-1.34-0.97-2.3-2.34-2.88-4.12c-0.57-1.78-0.86-3.84-0.86-6.2V92.34
		c0-2.44,0.29-4.54,0.88-6.3s1.62-3.12,3.09-4.07c1.47-0.95,3.47-1.43,5.99-1.43c2.44,0,4.36,0.41,5.77,1.22
		c1.41,0.81,2.43,1.96,3.04,3.44c0.62,1.48,0.92,3.25,0.92,5.29v1.97h-6.76v-2.39c0-0.9-0.06-1.69-0.17-2.37
		c-0.11-0.69-0.37-1.22-0.78-1.62c-0.41-0.39-1.06-0.59-1.95-0.59c-0.92,0-1.6,0.24-2.02,0.71c-0.42,0.48-0.69,1.09-0.8,1.83
		c-0.11,0.74-0.17,1.53-0.17,2.37v15.08c0,0.95,0.08,1.81,0.25,2.56s0.48,1.34,0.94,1.76s1.13,0.63,2,0.63
		c0.87,0,1.54-0.22,2.02-0.67c0.48-0.45,0.8-1.06,0.99-1.83c0.18-0.77,0.27-1.64,0.27-2.63v-3.61h-3.32v-4.2h9.58v17.47h-4.54
		l-0.42-3.07c-0.45,1.04-1.12,2.39-2.02,3.06C56.12,115.64,54.92,115.48,53.41,115.48z"/>
	<path class="st5" d="M67.62,114.98V90.7h6.34v3.91c0.81-1.43,1.62-2.48,2.42-3.17c0.8-0.69,1.74-1.03,2.83-1.03
		c0.2,0,0.37,0.01,0.52,0.02s0.3,0.05,0.44,0.1v6.38c-0.31-0.14-0.66-0.26-1.05-0.36c-0.39-0.1-0.8-0.15-1.22-0.15
		c-0.78,0-1.5,0.2-2.14,0.61c-0.64,0.41-1.25,0.99-1.81,1.74v16.21H67.62z"/>
	<path class="st5" d="M89.73,115.9c-1.79,0-3.29-0.33-4.49-0.99c-1.2-0.66-2.11-1.62-2.73-2.9c-0.62-1.27-0.92-2.81-0.92-4.6v-8.15
		c0-1.85,0.31-3.4,0.92-4.64c0.62-1.25,1.54-2.2,2.77-2.86c1.23-0.66,2.72-0.99,4.45-0.99c1.85,0,3.35,0.34,4.49,1.01
		c1.15,0.67,2,1.65,2.54,2.94c0.55,1.29,0.82,2.86,0.82,4.7v4.24h-9.74v4.7c0,0.7,0.08,1.27,0.23,1.72
		c0.15,0.45,0.37,0.76,0.65,0.95c0.28,0.18,0.63,0.27,1.05,0.27c0.39,0,0.73-0.09,1.03-0.27c0.29-0.18,0.51-0.47,0.65-0.86
		c0.14-0.39,0.21-0.91,0.21-1.55v-2.31h5.88v2.02c0,2.46-0.67,4.34-2.02,5.63C94.18,115.25,92.25,115.9,89.73,115.9z M87.84,100.65
		h3.82v-2.39c0-0.7-0.07-1.27-0.21-1.7c-0.14-0.43-0.36-0.74-0.65-0.92c-0.29-0.18-0.67-0.27-1.11-0.27c-0.42,0-0.76,0.1-1.03,0.29
		c-0.27,0.2-0.47,0.54-0.61,1.03c-0.14,0.49-0.21,1.18-0.21,2.08V100.65z"/>
	<path class="st5" d="M101.47,122.32v-4.45c0.92,0,1.68-0.06,2.27-0.17c0.59-0.11,1.03-0.31,1.32-0.61s0.44-0.71,0.44-1.24
		c0-0.42-0.09-0.99-0.27-1.72s-0.39-1.54-0.61-2.44l-5.54-20.5h6.01l3.11,14.91l2.52-14.91h6.05l-5.63,25.03
		c-0.34,1.57-0.89,2.79-1.66,3.67c-0.77,0.88-1.71,1.5-2.81,1.87c-1.11,0.36-2.39,0.55-3.84,0.55H101.47z"/>
	<path class="st5" d="M130.24,115.48V81.46h8.82c2.3,0,4.26,0.26,5.9,0.78c1.64,0.52,2.9,1.44,3.78,2.75
		c0.88,1.32,1.32,3.14,1.32,5.46c0,1.4-0.12,2.64-0.36,3.72c-0.24,1.08-0.66,2.02-1.26,2.81c-0.6,0.8-1.45,1.44-2.54,1.91l4.7,16.59
		h-7.1l-3.91-15.41h-2.44v15.41H130.24z M137.17,95.95h2.02c1.12,0,2-0.18,2.65-0.55c0.64-0.36,1.1-0.92,1.36-1.66
		c0.27-0.74,0.4-1.66,0.4-2.75c0-1.57-0.29-2.77-0.86-3.59c-0.57-0.83-1.64-1.24-3.21-1.24h-2.35V95.95z"/>
	<path class="st5" d="M154.27,87.21v-4.75h6.38v4.75H154.27z M154.31,115.48V91.2h6.34v24.28H154.31z"/>
	<path class="st5" d="M170.35,115.9c-1.85,0-3.27-0.66-4.26-1.97s-1.49-3.33-1.49-6.05v-8.9c0-1.57,0.2-2.97,0.61-4.2
		c0.41-1.23,1.03-2.21,1.87-2.92s1.92-1.07,3.23-1.07c0.87,0,1.69,0.18,2.48,0.55c0.78,0.36,1.5,0.83,2.14,1.39V81.46h6.34v34.02
		h-6.34v-1.81c-0.7,0.67-1.43,1.21-2.21,1.62C171.96,115.69,171.17,115.9,170.35,115.9z M172.92,111.7c0.28,0,0.59-0.06,0.95-0.19
		c0.35-0.13,0.71-0.3,1.07-0.53V95.53c-0.31-0.17-0.63-0.31-0.97-0.44s-0.67-0.19-1.01-0.19c-0.73,0-1.24,0.31-1.53,0.92
		c-0.29,0.62-0.44,1.36-0.44,2.23v10.25c0,0.64,0.06,1.23,0.17,1.74c0.11,0.52,0.31,0.92,0.59,1.22
		C172.02,111.55,172.41,111.7,172.92,111.7z"/>
	<path class="st5" d="M193.16,123.71c-1.76,0-3.3-0.18-4.6-0.55c-1.3-0.36-2.32-0.9-3.04-1.62s-1.09-1.63-1.09-2.75
		c0-0.76,0.16-1.44,0.48-2.04c0.32-0.6,0.77-1.13,1.34-1.58c0.57-0.45,1.2-0.84,1.87-1.18c-0.98-0.28-1.74-0.71-2.29-1.3
		c-0.55-0.59-0.82-1.34-0.82-2.27c0-0.98,0.24-1.82,0.71-2.52c0.48-0.7,1.13-1.41,1.97-2.14c-0.84-0.7-1.47-1.57-1.89-2.6
		c-0.42-1.04-0.63-2.34-0.63-3.91c0-1.82,0.32-3.36,0.97-4.62c0.64-1.26,1.59-2.22,2.83-2.88c1.25-0.66,2.75-0.99,4.51-0.99
		c1.26,0,2.35,0.17,3.28,0.52c0.92,0.35,1.69,0.86,2.31,1.53c0.28-0.42,0.69-0.86,1.22-1.32s1.13-0.86,1.81-1.2l0.84-0.38l1.51,3.19
		c-0.28,0.08-0.67,0.22-1.16,0.42c-0.49,0.2-0.98,0.41-1.47,0.63c-0.49,0.22-0.9,0.43-1.24,0.63c0.28,0.59,0.5,1.29,0.67,2.1
		c0.17,0.81,0.25,1.62,0.25,2.44c0,1.71-0.29,3.19-0.88,4.45c-0.59,1.26-1.47,2.23-2.65,2.9c-1.18,0.67-2.67,1.01-4.49,1.01
		c-0.7,0-1.37-0.06-2-0.17s-1.23-0.25-1.79-0.42c-0.17,0.22-0.31,0.47-0.44,0.73c-0.13,0.27-0.19,0.54-0.19,0.82
		c0,0.34,0.16,0.6,0.48,0.8c0.32,0.2,0.9,0.34,1.74,0.42l5.84,0.63c2.04,0.22,3.55,0.88,4.51,1.95c0.97,1.08,1.45,2.51,1.45,4.3
		c0,1.48-0.34,2.74-1.01,3.78c-0.67,1.04-1.74,1.82-3.21,2.35C197.42,123.44,195.51,123.71,193.16,123.71z M193.92,119.05
		c1.54,0,2.72-0.14,3.53-0.42c0.81-0.28,1.22-0.83,1.22-1.64c0-0.39-0.11-0.72-0.32-0.99c-0.21-0.27-0.57-0.48-1.09-0.65
		c-0.52-0.17-1.24-0.29-2.16-0.38l-4.37-0.42c-0.28,0.22-0.53,0.46-0.76,0.71c-0.22,0.25-0.41,0.52-0.55,0.8
		c-0.14,0.28-0.21,0.59-0.21,0.92c0,0.67,0.36,1.18,1.07,1.53C191,118.87,192.21,119.05,193.92,119.05z M193.5,103.84
		c0.45,0,0.81-0.08,1.09-0.25c0.28-0.17,0.49-0.43,0.63-0.8c0.14-0.36,0.24-0.84,0.29-1.43c0.06-0.59,0.08-1.29,0.08-2.1
		c0-0.81-0.03-1.5-0.08-2.08c-0.06-0.57-0.15-1.05-0.29-1.43c-0.14-0.38-0.35-0.65-0.63-0.82c-0.28-0.17-0.64-0.25-1.09-0.25
		c-0.42,0-0.78,0.08-1.07,0.25s-0.51,0.43-0.65,0.8c-0.14,0.36-0.24,0.84-0.29,1.43c-0.06,0.59-0.08,1.29-0.08,2.1
		c0,0.78,0.03,1.46,0.08,2.04c0.06,0.57,0.15,1.05,0.29,1.43c0.14,0.38,0.35,0.66,0.63,0.84
		C192.68,103.75,193.05,103.84,193.5,103.84z"/>
	<path class="st5" d="M212.77,115.9c-1.79,0-3.29-0.33-4.49-0.99c-1.2-0.66-2.11-1.62-2.73-2.9c-0.62-1.27-0.92-2.81-0.92-4.6v-8.15
		c0-1.85,0.31-3.4,0.92-4.64c0.62-1.25,1.54-2.2,2.77-2.86c1.23-0.66,2.72-0.99,4.45-0.99c1.85,0,3.35,0.34,4.49,1.01
		c1.15,0.67,2,1.65,2.54,2.94c0.55,1.29,0.82,2.86,0.82,4.7v4.24h-9.74v4.7c0,0.7,0.08,1.27,0.23,1.72
		c0.15,0.45,0.37,0.76,0.65,0.95c0.28,0.18,0.63,0.27,1.05,0.27c0.39,0,0.74-0.09,1.03-0.27c0.29-0.18,0.51-0.47,0.65-0.86
		c0.14-0.39,0.21-0.91,0.21-1.55v-2.31h5.88v2.02c0,2.46-0.67,4.34-2.02,5.63S215.29,115.9,212.77,115.9z M210.88,100.65h3.82v-2.39
		c0-0.7-0.07-1.27-0.21-1.7c-0.14-0.43-0.36-0.74-0.65-0.92c-0.29-0.18-0.67-0.27-1.11-0.27c-0.42,0-0.76,0.1-1.03,0.29
		c-0.27,0.2-0.47,0.54-0.61,1.03c-0.14,0.49-0.21,1.18-0.21,2.08V100.65z"/>
</g>
<g id="Egg_Farms">
	<path class="st5" d="M67.76,160.88c-0.14,0.98,0.03,1.71,0.51,2.18c0.48,0.47,1.24,0.64,2.29,0.52c1.21-0.15,2.46-0.59,3.78-1.34
		c1.31-0.74,2.31-1.6,2.98-2.56l0.74,0.21c-1.09,1.84-2.64,3.4-4.64,4.68c-2,1.28-4.06,2.05-6.18,2.31
		c-1.96,0.24-3.42-0.06-4.39-0.9c-0.97-0.84-1.34-2.08-1.11-3.72c0.25-1.78,1.1-3.52,2.53-5.23c1.43-1.71,3.07-2.87,4.92-3.48
		c-0.62-0.35-1.06-0.81-1.32-1.4c-0.26-0.59-0.34-1.26-0.23-2.02c0.25-1.72,1.2-3.33,2.86-4.85c1.66-1.52,3.51-2.4,5.56-2.66
		c1.46-0.18,2.58,0.02,3.38,0.61c0.8,0.58,1.11,1.46,0.95,2.62c-0.13,0.9-0.48,1.68-1.06,2.36c-0.58,0.67-1.22,1.05-1.92,1.14
		c-0.32,0.04-0.6,0-0.84-0.11c-0.24-0.11-0.46-0.28-0.65-0.52c0.43-0.17,0.83-0.55,1.2-1.13c0.37-0.58,0.6-1.15,0.68-1.72
		c0.08-0.53-0.03-0.93-0.33-1.19c-0.3-0.26-0.73-0.36-1.3-0.29c-0.95,0.12-1.84,0.65-2.64,1.6c-0.81,0.95-1.29,2-1.46,3.14
		c-0.15,1.02,0.03,1.86,0.53,2.51c0.5,0.65,1.27,1.04,2.33,1.17c-1.73,0.55-3.3,1.65-4.71,3.27
		C68.81,157.71,67.99,159.31,67.76,160.88z"/>
	<path class="st5" d="M89.52,149.92l-0.03,0.18l0.6-1.64l4.91-0.61l-5.41,14.63c1.19-0.51,2.16-1.13,2.9-1.88
		c0.74-0.74,1.42-1.76,2.03-3.03l1.43-0.18c-0.75,1.62-1.67,2.96-2.77,4.01c-1.1,1.06-2.46,1.88-4.09,2.46l-0.83,2.27
		c-0.66,1.77-1.56,3.15-2.71,4.16c-1.15,1-2.54,1.61-4.18,1.81c-1.16,0.14-2.05-0.01-2.67-0.45c-0.62-0.45-0.86-1.13-0.73-2.05
		c0.14-1,0.73-1.94,1.76-2.82c1.03-0.88,2.51-1.69,4.45-2.43l0.64-1.67c-0.67,0.62-1.37,1.12-2.09,1.49
		c-0.72,0.37-1.47,0.6-2.24,0.7c-1.41,0.17-2.46-0.12-3.14-0.88c-0.68-0.76-0.91-1.92-0.69-3.5c0.16-1.14,0.53-2.36,1.09-3.66
		c0.57-1.29,1.26-2.49,2.09-3.6c1.01-1.31,2.12-2.35,3.33-3.13c1.21-0.78,2.47-1.25,3.79-1.41c0.89-0.11,1.55-0.06,1.99,0.16
		C89.4,149.08,89.59,149.43,89.52,149.92z M89,151.43c0.02-0.32-0.07-0.58-0.29-0.76c-0.22-0.18-0.53-0.25-0.94-0.2
		c-1.25,0.15-2.49,1.23-3.73,3.23c-1.24,2-1.99,3.92-2.25,5.75c-0.11,0.8-0.08,1.38,0.12,1.75c0.19,0.37,0.61,0.51,1.24,0.43
		c0.55-0.07,1.12-0.36,1.72-0.87c0.6-0.51,1.05-1.13,1.35-1.85L89,151.43z M83.64,165.94c-1.19,0.53-2.09,1.04-2.7,1.52
		c-0.61,0.49-0.95,0.98-1.02,1.5c-0.04,0.27,0.04,0.49,0.24,0.66c0.2,0.18,0.46,0.24,0.78,0.21c0.39-0.05,0.8-0.34,1.23-0.87
		c0.43-0.53,0.81-1.23,1.14-2.1L83.64,165.94z"/>
	<path class="st5" d="M106.83,147.79l-0.03,0.18l0.6-1.64l4.91-0.61l-5.41,14.63c1.19-0.51,2.16-1.13,2.9-1.88
		c0.74-0.74,1.42-1.76,2.03-3.03l1.43-0.18c-0.75,1.62-1.67,2.95-2.77,4.01c-1.1,1.06-2.46,1.88-4.09,2.46l-0.83,2.27
		c-0.66,1.77-1.56,3.15-2.71,4.16c-1.15,1-2.54,1.61-4.18,1.81c-1.16,0.14-2.05-0.01-2.67-0.45c-0.62-0.45-0.86-1.13-0.73-2.05
		c0.14-1,0.73-1.94,1.76-2.82c1.03-0.88,2.51-1.69,4.45-2.43l0.64-1.67c-0.67,0.62-1.37,1.12-2.09,1.49
		c-0.72,0.37-1.47,0.6-2.24,0.7c-1.41,0.17-2.46-0.12-3.14-0.88s-0.91-1.92-0.69-3.5c0.16-1.14,0.53-2.36,1.09-3.66
		c0.56-1.29,1.26-2.49,2.09-3.6c1.01-1.31,2.12-2.35,3.33-3.13c1.21-0.78,2.47-1.25,3.79-1.41c0.89-0.11,1.55-0.06,1.99,0.16
		C106.71,146.95,106.9,147.3,106.83,147.79z M106.31,149.3c0.02-0.32-0.07-0.58-0.29-0.76c-0.22-0.18-0.53-0.25-0.94-0.2
		c-1.25,0.15-2.49,1.23-3.73,3.23c-1.24,2-1.99,3.92-2.25,5.75c-0.11,0.8-0.08,1.38,0.12,1.75c0.19,0.37,0.61,0.51,1.24,0.43
		c0.55-0.07,1.12-0.36,1.72-0.87c0.6-0.51,1.05-1.13,1.35-1.85L106.31,149.3z M100.94,163.8c-1.19,0.53-2.09,1.04-2.7,1.52
		c-0.61,0.49-0.95,0.98-1.02,1.5c-0.04,0.27,0.04,0.49,0.24,0.66c0.2,0.18,0.46,0.24,0.77,0.2c0.39-0.05,0.8-0.34,1.23-0.87
		c0.43-0.53,0.81-1.23,1.14-2.1L100.94,163.8z"/>
	<path class="st5" d="M138.64,138.57c-0.61,0.08-1.28,0.11-2.01,0.11c-0.73,0-1.62-0.04-2.68-0.11l-2.31,6.27l4.98-0.61l-0.87,2.33
		l-4.98,0.61l-4.41,11.86l-4.91,0.61l7.85-21.07c-1.58,0.25-2.79,0.94-3.63,2.04c-0.84,1.11-1.41,2.72-1.72,4.85
		c-0.06,0.39-0.08,0.72-0.06,1c0.01,0.28,0.07,0.54,0.17,0.79c0.03,0.08,0.05,0.13,0.06,0.16c0.01,0.03,0.01,0.05,0.01,0.07
		c-1.27,0.16-2.17,0.03-2.68-0.38c-0.51-0.41-0.69-1.12-0.55-2.14c0.35-2.43,1.64-4.49,3.89-6.18c2.24-1.69,5.2-2.76,8.89-3.22
		c0.21-0.03,0.45-0.05,0.75-0.06c0.29-0.02,0.78-0.04,1.45-0.06c0.9-0.03,1.59-0.06,2.07-0.09c0.48-0.03,0.93-0.07,1.34-0.12
		c0.61-0.08,1.18-0.17,1.68-0.3c0.51-0.12,0.99-0.27,1.44-0.45c-0.03,0.04-0.18,0.37-0.44,0.99c-0.27,0.62-0.55,1.11-0.85,1.49
		c-0.3,0.38-0.65,0.7-1.06,0.96C139.65,138.19,139.18,138.41,138.64,138.57z"/>
	<path class="st5" d="M147.17,142.82l-0.03,0.21l0.61-1.67l4.91-0.61l-3.95,10.72c-0.07,0.19-0.13,0.36-0.17,0.52
		c-0.04,0.16-0.08,0.32-0.1,0.48c-0.06,0.45,0,0.77,0.2,0.95c0.2,0.19,0.53,0.25,1.01,0.19c0.59-0.07,1.16-0.39,1.71-0.95
		c0.55-0.56,1.04-1.32,1.46-2.27l1.43-0.18c-1,1.97-2.14,3.5-3.44,4.59c-1.3,1.09-2.71,1.73-4.23,1.92
		c-0.98,0.12-1.72-0.03-2.23-0.45c-0.51-0.42-0.75-1.07-0.71-1.96c-0.84,1.03-1.72,1.83-2.64,2.4c-0.92,0.58-1.87,0.92-2.85,1.04
		c-1.41,0.17-2.46-0.12-3.14-0.88c-0.68-0.76-0.91-1.92-0.69-3.5c0.16-1.14,0.53-2.36,1.09-3.66c0.57-1.29,1.26-2.49,2.09-3.6
		c1.01-1.31,2.12-2.35,3.33-3.13c1.21-0.78,2.47-1.25,3.79-1.41c0.89-0.11,1.55-0.06,1.99,0.16
		C147.06,141.98,147.24,142.33,147.17,142.82z M146.65,144.36c0.04-0.31-0.04-0.56-0.26-0.77c-0.22-0.2-0.54-0.28-0.97-0.23
		c-1.25,0.15-2.49,1.23-3.73,3.23c-1.24,2-1.99,3.92-2.25,5.75c-0.11,0.8-0.08,1.38,0.12,1.75c0.19,0.37,0.61,0.51,1.24,0.43
		c0.59-0.07,1.2-0.4,1.83-0.98c0.63-0.58,1.09-1.27,1.39-2.07L146.65,144.36z"/>
	<path class="st5" d="M155.56,155.45l-4.91,0.6l5.81-15.76l4.91-0.61l-0.72,1.95c1.11-0.88,1.97-1.48,2.59-1.81
		c0.62-0.33,1.22-0.53,1.81-0.6c0.7-0.09,1.24,0.06,1.61,0.45c0.37,0.39,0.51,0.91,0.41,1.56c-0.09,0.63-0.39,1.19-0.91,1.68
		c-0.52,0.49-1.14,0.77-1.87,0.86c-0.39,0.05-0.68,0-0.87-0.13c-0.19-0.14-0.3-0.45-0.32-0.95c-0.02-0.32-0.07-0.52-0.15-0.6
		c-0.08-0.08-0.2-0.11-0.36-0.09c-0.39,0.05-0.76,0.16-1.12,0.35c-0.36,0.19-0.87,0.56-1.53,1.12L155.56,155.45z"/>
	<path class="st5" d="M181.94,148.98c0.05-0.37,0.17-0.83,0.35-1.4c0.18-0.56,0.52-1.47,1.01-2.71c0.49-1.2,0.81-2.07,0.97-2.59
		c0.16-0.52,0.27-0.96,0.32-1.3c0.07-0.51,0.03-0.89-0.14-1.13c-0.17-0.24-0.45-0.34-0.86-0.28c-0.55,0.07-1.09,0.38-1.63,0.94
		c-0.54,0.56-1.02,1.29-1.44,2.21l-3.73,10.12l-4.91,0.61l4-10.88c0.06-0.13,0.11-0.25,0.14-0.38c0.03-0.12,0.05-0.26,0.07-0.4
		c0.06-0.41,0.01-0.72-0.13-0.95c-0.15-0.22-0.38-0.31-0.7-0.28c-0.59,0.07-1.16,0.39-1.71,0.95c-0.55,0.56-1.04,1.31-1.46,2.24
		l-3.73,10.12l-4.91,0.6l5.81-15.76l4.91-0.61l-0.6,1.64c0.65-0.66,1.34-1.18,2.06-1.55c0.72-0.37,1.5-0.61,2.35-0.71
		c1-0.12,1.76,0,2.28,0.37c0.52,0.37,0.8,0.98,0.86,1.83c0.76-0.96,1.56-1.7,2.4-2.22c0.83-0.52,1.74-0.85,2.72-0.97
		c1.21-0.15,2.09,0.03,2.67,0.54c0.57,0.51,0.78,1.33,0.62,2.45c-0.07,0.47-0.21,1.03-0.43,1.69c-0.22,0.66-0.6,1.67-1.16,3.05
		c-0.44,1.08-0.74,1.84-0.9,2.28c-0.15,0.44-0.25,0.8-0.29,1.09c-0.06,0.43,0.01,0.74,0.2,0.92c0.2,0.19,0.52,0.25,0.98,0.2
		c0.57-0.07,1.08-0.3,1.54-0.7c0.46-0.4,1.03-1.18,1.71-2.35l1.43-0.18c-1,1.99-2.08,3.52-3.25,4.58c-1.17,1.07-2.47,1.69-3.9,1.86
		c-1.27,0.16-2.22-0.03-2.83-0.57C182.02,150.84,181.79,150.04,181.94,148.98z"/>
	<path class="st5" d="M201.18,144.8c-0.03,0.25-0.08,0.46-0.13,0.65c-0.05,0.19-0.11,0.36-0.18,0.53c0.49-0.3,0.97-0.61,1.44-0.93
		c0.47-0.32,0.88-0.62,1.24-0.9l1.43-0.18c-0.81,0.82-1.69,1.6-2.63,2.33c-0.94,0.73-1.99,1.44-3.14,2.15
		c-0.7,0.67-1.55,1.22-2.55,1.65c-1,0.43-2.02,0.72-3.07,0.84c-1.52,0.19-2.68-0.04-3.47-0.67c-0.79-0.63-1.11-1.51-0.95-2.64
		c0.09-0.63,0.34-1.23,0.76-1.79c0.42-0.56,0.9-0.99,1.46-1.28c0.95-1.34,1.86-2.76,2.74-4.26c0.87-1.5,1.79-3.28,2.76-5.32
		l5.14-1.24c-0.15,1.52-0.27,2.91-0.36,4.17c-0.09,1.26-0.17,2.62-0.25,4.09c-0.05,0.85-0.1,1.45-0.12,1.79
		C201.27,144.14,201.23,144.47,201.18,144.8z M196.63,138.26c-0.42,0.87-0.9,1.79-1.45,2.75c-0.55,0.96-1.27,2.09-2.14,3.38
		c0.24,0.07,0.41,0.19,0.52,0.36c0.11,0.17,0.15,0.37,0.11,0.62c-0.06,0.39-0.25,0.75-0.59,1.1c-0.34,0.34-0.71,0.54-1.12,0.59
		c-0.23,0.03-0.42,0.02-0.56-0.04c-0.15-0.05-0.25-0.13-0.3-0.25c-0.11,0.76-0.02,1.28,0.26,1.58c0.28,0.3,0.79,0.4,1.51,0.31
		c0.93-0.11,1.69-0.45,2.29-1c0.59-0.55,0.96-1.29,1.09-2.21c0.04-0.29,0.07-0.58,0.09-0.87c0.02-0.29,0.05-0.78,0.08-1.47
		c0.02-0.95,0.05-1.78,0.09-2.51S196.58,139.09,196.63,138.26z"/>
</g>
<g id="EST_2020">
	<path class="st5" d="M90.21,57.76l-0.88-0.13v-0.61h5.86l0.14,1.66h-0.77l-0.36-0.98l-2.38-0.09v2.66l1.53-0.03l0.18-0.81h0.7v2.4
		h-0.7l-0.18-0.85l-1.53-0.03v2.79l2.66-0.12l0.64-1.27l0.83,0.21l-0.29,1.81h-6.32v-0.59l0.87-0.1V57.76z"/>
	<path class="st5" d="M98.16,64.4c-0.32-0.06-0.67-0.14-1.06-0.24c-0.26-0.07-0.43-0.1-0.52-0.11l0.1-1.83h0.89l0.24,1.28
		c0.1,0.09,0.27,0.17,0.51,0.25c0.25,0.07,0.53,0.11,0.84,0.11c0.49,0,0.86-0.1,1.11-0.29c0.25-0.19,0.37-0.47,0.37-0.82
		c0-0.23-0.07-0.43-0.22-0.6c-0.15-0.17-0.35-0.32-0.6-0.46s-0.61-0.29-1.06-0.47c-0.61-0.25-1.11-0.55-1.51-0.9
		c-0.4-0.35-0.6-0.82-0.6-1.41c0-0.37,0.11-0.7,0.32-1c0.21-0.3,0.53-0.54,0.95-0.71c0.42-0.17,0.94-0.26,1.55-0.26
		c0.36,0,0.68,0.02,0.95,0.07c0.27,0.05,0.57,0.11,0.9,0.19c0.19,0.05,0.33,0.08,0.43,0.09l-0.07,1.73h-0.88l-0.23-1.22
		c-0.07-0.06-0.2-0.12-0.4-0.17c-0.2-0.06-0.42-0.08-0.66-0.08c-0.44,0-0.77,0.09-1,0.27c-0.22,0.18-0.34,0.42-0.34,0.73
		c0,0.24,0.08,0.46,0.25,0.63c0.16,0.18,0.36,0.33,0.6,0.45s0.6,0.3,1.11,0.52c0.41,0.18,0.76,0.35,1.06,0.52
		c0.29,0.17,0.55,0.39,0.76,0.67c0.21,0.27,0.32,0.6,0.32,0.97c0,0.36-0.1,0.71-0.3,1.04c-0.2,0.33-0.53,0.6-0.99,0.82
		c-0.46,0.22-1.04,0.33-1.75,0.33C98.83,64.49,98.47,64.46,98.16,64.4z"/>
	<path class="st5" d="M105.53,57.67l-1.57,0.05l-0.43,2.16h-0.92l0.19-2.86h7.1l0.13,2.86h-0.87l-0.43-2.16l-1.55-0.05v6.01
		l1.54,0.1v0.59h-4.59v-0.59l1.41-0.1V57.67z"/>
	<path class="st5" d="M155.06,61.63c0.77-0.77,1.16-1.52,1.16-2.23c0-0.38-0.13-0.69-0.4-0.92c-0.26-0.23-0.63-0.34-1.11-0.34
		c-0.45,0-0.83,0.08-1.14,0.23c-0.31,0.15-0.61,0.35-0.9,0.59l-0.49-0.64c0.17-0.19,0.42-0.39,0.75-0.6s0.7-0.37,1.14-0.51
		c0.43-0.14,0.87-0.21,1.31-0.21c0.63,0,1.16,0.1,1.59,0.29c0.43,0.2,0.75,0.45,0.96,0.77s0.31,0.67,0.31,1.06
		c0,0.75-0.4,1.5-1.2,2.26c-0.8,0.76-1.81,1.45-3.04,2.08l3.77-0.32l0.49-0.98l0.82,0.15l-0.38,2.06h-6.33l-0.27-0.63
		C153.3,63.11,154.29,62.4,155.06,61.63z"/>
	<path class="st5" d="M160.88,63.49c-0.58-0.67-0.88-1.57-0.88-2.72c0-0.81,0.17-1.5,0.51-2.06c0.34-0.57,0.79-0.99,1.35-1.28
		c0.56-0.28,1.18-0.43,1.87-0.43c1.12,0,1.96,0.32,2.52,0.95s0.84,1.53,0.84,2.7c0,0.8-0.16,1.5-0.49,2.08
		c-0.33,0.58-0.76,1.02-1.32,1.32s-1.17,0.44-1.86,0.44C162.31,64.49,161.46,64.16,160.88,63.49z M164.75,63.04
		c0.25-0.5,0.38-1.25,0.38-2.25c0-1.06-0.12-1.84-0.36-2.33c-0.24-0.5-0.64-0.74-1.21-0.74c-1.08,0-1.61,0.98-1.61,2.94
		c0,1.05,0.13,1.83,0.38,2.36c0.25,0.53,0.66,0.79,1.21,0.79C164.1,63.79,164.5,63.54,164.75,63.04z"/>
	<path class="st5" d="M171.08,61.63c0.77-0.77,1.16-1.52,1.16-2.23c0-0.38-0.13-0.69-0.4-0.92c-0.26-0.23-0.63-0.34-1.11-0.34
		c-0.45,0-0.83,0.08-1.14,0.23c-0.31,0.15-0.61,0.35-0.9,0.59l-0.49-0.64c0.17-0.19,0.42-0.39,0.75-0.6s0.7-0.37,1.14-0.51
		c0.43-0.14,0.87-0.21,1.31-0.21c0.63,0,1.16,0.1,1.59,0.29c0.43,0.2,0.75,0.45,0.96,0.77s0.31,0.67,0.31,1.06
		c0,0.75-0.4,1.5-1.2,2.26c-0.8,0.76-1.81,1.45-3.04,2.08l3.77-0.32l0.49-0.98l0.82,0.15l-0.38,2.06h-6.33l-0.27-0.63
		C169.32,63.11,170.31,62.4,171.08,61.63z"/>
	<path class="st5" d="M176.89,63.49c-0.58-0.67-0.88-1.57-0.88-2.72c0-0.81,0.17-1.5,0.51-2.06c0.34-0.57,0.79-0.99,1.35-1.28
		c0.56-0.28,1.18-0.43,1.87-0.43c1.12,0,1.96,0.32,2.52,0.95s0.84,1.53,0.84,2.7c0,0.8-0.16,1.5-0.49,2.08
		c-0.33,0.58-0.76,1.02-1.32,1.32s-1.17,0.44-1.86,0.44C178.33,64.49,177.48,64.16,176.89,63.49z M180.77,63.04
		c0.25-0.5,0.38-1.25,0.38-2.25c0-1.06-0.12-1.84-0.36-2.33c-0.24-0.5-0.64-0.74-1.21-0.74c-1.08,0-1.61,0.98-1.61,2.94
		c0,1.05,0.13,1.83,0.38,2.36c0.25,0.53,0.66,0.79,1.21,0.79C180.11,63.79,180.51,63.54,180.77,63.04z"/>
</g>
<path id="Chicken" class="st5" d="M143.18,53.18c0,0,1.21,0.43,0,0.98c-1.21,0.55-3.6,0.48-3.16,2.35s2.86,8.79-2.2,10.98
	c-5.05,2.2-4.94,1.67-4.94,1.67s-0.21,0.89,0.78,1.62c0.99,0.73,2.73,2.14,1.2,2.69c-1.65,0.22-1.15-1.89-3.14-1.48
	c-1.43,0.29-1.37,1.43-2.25,1.43s-1.87-1.1,0.88-2.86c1.52-0.97-2.2-1.65-2.2-1.65s6.76-1.59,7.31-7.08c0,0-3.36,5.92-9.4,4.71
	c-6.04-1.21-5.93-7.52-5.93-7.52s4.74,6.86,8.13,3.86c0,0-7.05-2.51-9.01-8.91v-2.53c0,0,2.97,5.93,9.23,5.6c0,0,5.6,1.21,6.59-3.29
	s1.1-3.4,1.1-3.4s-0.88-2.86,0.88-2.97c0,0,1.87-2.75,3.62,0c0,0,2.09-0.22,1.32,2.2C141.23,52.01,143.18,53.18,143.18,53.18z"/>
<g id="Crack_Open_a_Cold_One">
	<path class="st5" d="M63.71,45.99c-1.01-0.47-1.75-1.35-2.23-2.63c-0.32-0.85-0.4-1.66-0.25-2.44c0.15-0.78,0.5-1.46,1.04-2.06
		c0.55-0.59,1.25-1.05,2.1-1.37c0.36-0.13,0.71-0.24,1.06-0.33c0.35-0.08,0.76-0.18,1.24-0.28c0.36-0.08,0.56-0.12,0.59-0.13
		l0.71,2.31l-1.12,0.42l-0.96-1.43c-0.12-0.05-0.3-0.06-0.54-0.02c-0.24,0.03-0.53,0.11-0.87,0.24c-0.69,0.26-1.14,0.75-1.34,1.48
		c-0.21,0.73-0.1,1.64,0.3,2.73c0.39,1.05,0.91,1.84,1.56,2.35s1.35,0.63,2.11,0.35c0.37-0.14,0.64-0.27,0.81-0.41
		c0.18-0.14,0.31-0.29,0.41-0.46l0.12-1.33l1.06-0.29l0.39,1.79c-0.17,0.08-0.32,0.17-0.48,0.27c-0.15,0.1-0.25,0.16-0.28,0.19
		c-0.29,0.2-0.57,0.38-0.84,0.53c-0.26,0.15-0.6,0.3-1,0.45C65.91,46.43,64.72,46.46,63.71,45.99z"/>
	<path class="st5" d="M71.26,43.63l0.79-0.35l-1.43-4.38l-0.86,0.06l-0.25-0.77l1.84-0.86l0.04-0.01l0.38,0.12l0.08,0.24l0.26,0.91
		l0.04-0.01c0.01-0.17,0.09-0.39,0.23-0.68s0.35-0.57,0.62-0.84c0.27-0.27,0.6-0.47,0.98-0.59c0.18-0.06,0.35-0.09,0.49-0.09
		l0.54,1.67c-0.3-0.08-0.62-0.06-0.98,0.06c-0.6,0.2-1.08,0.51-1.43,0.94l1.19,3.65l1.47-0.37l0.21,0.66l-3.99,1.3L71.26,43.63z"/>
	<path class="st5" d="M77.65,38.74c0.67-0.56,1.6-1.02,2.81-1.37l-0.07-0.26c-0.09-0.31-0.19-0.54-0.31-0.69
		c-0.12-0.15-0.29-0.25-0.5-0.28c-0.21-0.03-0.5,0-0.86,0.1c-0.41,0.12-0.76,0.27-1.06,0.45c-0.3,0.19-0.6,0.4-0.91,0.65l-0.59-0.61
		c0.1-0.13,0.27-0.31,0.53-0.53c0.26-0.22,0.58-0.44,0.96-0.65c0.38-0.22,0.79-0.39,1.22-0.51c0.64-0.18,1.17-0.25,1.57-0.2
		c0.41,0.05,0.73,0.21,0.99,0.5c0.25,0.29,0.46,0.71,0.61,1.26l0.98,3.44l0.68-0.19l0.18,0.63c-0.16,0.08-0.38,0.19-0.68,0.31
		c-0.3,0.13-0.56,0.22-0.8,0.29c-0.28,0.08-0.48,0.1-0.6,0.05c-0.12-0.05-0.21-0.19-0.27-0.42l-0.09-0.3
		c-0.16,0.29-0.4,0.57-0.7,0.86c-0.31,0.28-0.69,0.49-1.14,0.61c-0.38,0.11-0.76,0.14-1.12,0.08c-0.36-0.06-0.68-0.2-0.95-0.42
		c-0.27-0.23-0.46-0.54-0.58-0.94C76.75,39.92,76.99,39.3,77.65,38.74z M80.69,40.41c0.2-0.16,0.36-0.33,0.49-0.51l-0.52-1.85
		c-0.75,0.21-1.28,0.49-1.58,0.82s-0.41,0.68-0.31,1.04c0.1,0.36,0.27,0.61,0.51,0.74c0.24,0.13,0.52,0.16,0.85,0.06
		C80.3,40.67,80.49,40.57,80.69,40.41z"/>
	<path class="st5" d="M84.04,35.33c0.17-0.58,0.49-1.07,0.96-1.49s1.07-0.71,1.8-0.89c0.34-0.08,0.63-0.13,0.89-0.14
		c0.25-0.01,0.54-0.02,0.87-0.02l0.39,0l0.39,1.96l-1.1,0.27l-0.62-1.17c-0.1-0.18-0.37-0.22-0.82-0.12
		c-0.47,0.11-0.8,0.39-0.97,0.82c-0.18,0.44-0.17,1.05,0.01,1.84c0.2,0.83,0.52,1.43,0.94,1.8s0.91,0.49,1.44,0.36
		c0.64-0.15,1.19-0.45,1.66-0.89l0.43,0.52c-0.17,0.27-0.46,0.54-0.86,0.83c-0.41,0.29-0.87,0.5-1.39,0.63
		c-1.08,0.26-1.96,0.16-2.65-0.31s-1.15-1.19-1.38-2.16C83.87,36.53,83.87,35.91,84.04,35.33z"/>
	<path class="st5" d="M90.7,30.13l-0.95,0.03l-0.12-0.62l2.3-0.72l0.03-0.01l0.39,0.15l1.08,5.45l0.08,0.62l2.12-2.97l-0.97,0.06
		l-0.13-0.65l3.33-0.66l0.13,0.65l-1,0.35l-1.3,1.66l2.91,2.99l0.72-0.05l0.14,0.69l-3.37,0.67l-0.14-0.69l0.63-0.23l-1.93-2.14
		L93.69,36l0.14,0.58l0.16,0.79l0.82-0.06l0.14,0.69l-3.33,0.66l-0.14-0.69l0.72-0.25L90.7,30.13z"/>
	<path class="st5" d="M103.28,31.35c0.26-0.55,0.64-0.99,1.15-1.32c0.51-0.33,1.08-0.54,1.72-0.62c1.08-0.14,1.96,0.05,2.62,0.57
		s1.07,1.3,1.2,2.33c0.1,0.73,0.02,1.38-0.24,1.94c-0.26,0.56-0.64,1-1.14,1.32c-0.5,0.32-1.08,0.52-1.72,0.61
		c-1.07,0.14-1.95-0.05-2.62-0.57c-0.67-0.52-1.07-1.3-1.21-2.33C102.94,32.55,103.02,31.91,103.28,31.35z M107.99,32.69
		c-0.11-0.88-0.32-1.54-0.61-1.97c-0.29-0.43-0.7-0.61-1.22-0.54c-1,0.13-1.39,1.04-1.17,2.72c0.12,0.88,0.33,1.54,0.63,1.96
		c0.3,0.43,0.72,0.61,1.24,0.54C107.84,35.28,108.21,34.37,107.99,32.69z"/>
	<path class="st5" d="M118.39,33.22c-0.25,0.57-0.65,1.04-1.2,1.41c-0.55,0.37-1.22,0.59-2.01,0.65c-0.17,0.01-0.35,0.02-0.54,0
		c-0.19-0.01-0.34-0.03-0.46-0.06l0.12,0.96l0.09,1.06l1.22,0.04l0.05,0.66l-3.85,0.32l-0.06-0.66l0.83-0.21L111.98,30l-0.86-0.14
		l-0.07-0.8l2.12-0.42l0.03,0l0.34,0.21l0.05,0.65c0.2-0.26,0.47-0.49,0.83-0.7c0.36-0.21,0.76-0.33,1.2-0.37
		c0.82-0.07,1.52,0.14,2.09,0.62c0.57,0.48,0.9,1.26,0.99,2.34C118.75,32.04,118.65,32.65,118.39,33.22z M114.3,29.66
		c-0.22,0.12-0.39,0.25-0.5,0.38l0.36,4.33c0.07,0.07,0.2,0.13,0.39,0.17c0.19,0.04,0.4,0.05,0.62,0.03
		c0.56-0.05,0.99-0.3,1.29-0.77c0.3-0.47,0.41-1.17,0.33-2.11c-0.07-0.79-0.26-1.37-0.57-1.74c-0.32-0.37-0.71-0.53-1.18-0.5
		C114.76,29.47,114.52,29.54,114.3,29.66z"/>
	<path class="st5" d="M121.03,33.97c-0.58-0.58-0.89-1.4-0.93-2.44c-0.03-0.7,0.1-1.31,0.37-1.84c0.27-0.52,0.67-0.93,1.18-1.23
		s1.12-0.45,1.82-0.48c0.87-0.03,1.54,0.15,2.02,0.54c0.48,0.39,0.75,0.97,0.79,1.72c0.02,0.51,0,0.9-0.06,1.15L122,31.55
		c0.06,0.71,0.27,1.25,0.62,1.63c0.35,0.38,0.84,0.56,1.46,0.54c0.34-0.01,0.68-0.08,1.04-0.19c0.36-0.11,0.63-0.25,0.84-0.39
		l0.35,0.63c-0.23,0.23-0.6,0.46-1.11,0.67c-0.52,0.21-1.04,0.33-1.58,0.35C122.47,34.82,121.61,34.55,121.03,33.97z M124.48,30.75
		c0.01-0.22,0.01-0.39,0.01-0.5c-0.04-1.04-0.44-1.54-1.21-1.51c-0.42,0.02-0.75,0.18-0.97,0.49s-0.33,0.85-0.33,1.62L124.48,30.75z
		"/>
	<path class="st5" d="M128.54,29.12l-0.83-0.22l0.01-0.81l2.16-0.22l0.04,0l0.32,0.24l0,0.46l-0.02,0.28
		c0.31-0.25,0.7-0.47,1.19-0.65s0.98-0.27,1.47-0.27c0.53,0.01,0.94,0.1,1.24,0.28c0.3,0.18,0.51,0.46,0.63,0.83
		c0.13,0.38,0.19,0.88,0.18,1.52l-0.03,3.23l0.79,0.1l-0.01,0.7l-3.35-0.04l0.01-0.7l0.7-0.09l0.03-3.23c0-0.41-0.02-0.72-0.08-0.95
		c-0.06-0.23-0.17-0.4-0.33-0.51c-0.16-0.11-0.39-0.16-0.68-0.17c-0.49,0-1.02,0.18-1.59,0.56l-0.04,4.26l0.78,0.11l-0.01,0.7
		l-3.39-0.04l0.01-0.7l0.75-0.1L128.54,29.12z"/>
	<path class="st5" d="M141.58,31.49c0.82-0.3,1.85-0.4,3.11-0.31l0.02-0.27c0.02-0.32,0.01-0.57-0.05-0.76s-0.18-0.33-0.37-0.43
		c-0.19-0.1-0.47-0.17-0.84-0.2c-0.42-0.03-0.81-0.01-1.15,0.06c-0.34,0.07-0.7,0.17-1.08,0.3l-0.34-0.78
		c0.14-0.09,0.36-0.19,0.68-0.31s0.69-0.21,1.12-0.28c0.43-0.07,0.87-0.09,1.32-0.06c0.67,0.05,1.18,0.17,1.54,0.35
		s0.62,0.45,0.75,0.81c0.14,0.35,0.19,0.82,0.14,1.4l-0.27,3.57l0.7,0.05l-0.05,0.65c-0.18,0.03-0.42,0.05-0.75,0.06
		c-0.32,0.01-0.6,0.01-0.85-0.01c-0.29-0.02-0.49-0.08-0.58-0.16c-0.09-0.09-0.13-0.25-0.11-0.49l0.02-0.31
		c-0.25,0.22-0.57,0.4-0.96,0.56c-0.39,0.16-0.81,0.22-1.28,0.18c-0.4-0.03-0.76-0.13-1.08-0.31c-0.32-0.18-0.57-0.42-0.75-0.73
		c-0.18-0.31-0.25-0.67-0.22-1.08C140.32,32.29,140.76,31.79,141.58,31.49z M143.85,34.11c0.24-0.08,0.45-0.18,0.64-0.31l0.15-1.91
		c-0.78-0.06-1.37,0.02-1.77,0.22c-0.4,0.21-0.62,0.5-0.65,0.87c-0.03,0.37,0.05,0.66,0.23,0.87c0.18,0.21,0.44,0.33,0.78,0.35
		C143.39,34.22,143.61,34.19,143.85,34.11z"/>
	<path class="st5" d="M152.21,30.89c0.37-0.48,0.84-0.83,1.44-1.04c0.59-0.22,1.26-0.27,2-0.18c0.34,0.05,0.64,0.11,0.88,0.19
		s0.51,0.18,0.81,0.3l0.36,0.14l-0.34,1.97l-1.12-0.15l-0.15-1.32c-0.03-0.21-0.26-0.34-0.72-0.4c-0.48-0.06-0.88,0.08-1.2,0.42
		s-0.54,0.92-0.66,1.72c-0.11,0.85-0.04,1.52,0.23,2.02s0.67,0.78,1.21,0.85c0.65,0.09,1.28,0.01,1.87-0.24l0.22,0.64
		c-0.25,0.19-0.62,0.34-1.11,0.47c-0.48,0.12-0.99,0.15-1.53,0.08c-1.1-0.15-1.89-0.56-2.36-1.25c-0.47-0.68-0.64-1.52-0.51-2.51
		C151.62,31.94,151.85,31.37,152.21,30.89z"/>
	<path class="st5" d="M159.6,31.81c0.41-0.45,0.9-0.76,1.49-0.92c0.58-0.16,1.19-0.19,1.82-0.08c1.08,0.19,1.85,0.63,2.34,1.32
		c0.48,0.7,0.63,1.56,0.46,2.58c-0.13,0.73-0.39,1.32-0.8,1.78c-0.41,0.46-0.9,0.76-1.48,0.92s-1.19,0.18-1.83,0.07
		c-1.07-0.18-1.84-0.63-2.33-1.32c-0.49-0.7-0.64-1.56-0.46-2.58C158.92,32.84,159.19,32.26,159.6,31.81z M163.71,34.48
		c0.15-0.88,0.15-1.56,0-2.06c-0.15-0.5-0.49-0.79-1.01-0.88c-0.99-0.17-1.63,0.58-1.92,2.26c-0.15,0.88-0.15,1.56,0.02,2.06
		c0.16,0.5,0.51,0.79,1.03,0.88C162.79,36.91,163.42,36.15,163.71,34.48z"/>
	<path class="st5" d="M169.04,30.03l-0.91-0.34l0.13-0.62l2.41,0.23l0.03,0l0.3,0.29l-1.73,8.4l0.91,0.28l-0.14,0.69l-3.6-0.74
		l0.14-0.69l0.91,0.08L169.04,30.03z"/>
	<path class="st5" d="M172.52,39.3c-0.36-0.32-0.61-0.75-0.74-1.28s-0.11-1.15,0.05-1.85c0.15-0.64,0.44-1.18,0.85-1.64
		s0.94-0.77,1.58-0.95c0.64-0.18,1.35-0.17,2.15,0.02c0.32,0.08,0.62,0.18,0.89,0.31l0.46-1.92l-1.2-0.46l0.15-0.63l2.66,0.4
		l0.04,0.01l0.3,0.32l-2.01,8.4l0.68,0.16l-0.16,0.65c-0.63-0.03-1.15-0.09-1.54-0.19c-0.27-0.06-0.45-0.15-0.55-0.26
		s-0.11-0.28-0.06-0.51l0.08-0.32c-0.28,0.21-0.63,0.36-1.05,0.44c-0.42,0.08-0.84,0.07-1.26-0.03
		C173.32,39.84,172.88,39.62,172.52,39.3z M175.5,39.2c0.24-0.05,0.44-0.13,0.6-0.25l0.99-4.14c-0.04-0.09-0.15-0.18-0.33-0.28
		c-0.18-0.1-0.38-0.17-0.59-0.23c-0.54-0.13-1.02-0.02-1.45,0.32c-0.43,0.34-0.75,0.98-0.97,1.9c-0.19,0.77-0.18,1.38,0,1.82
		c0.19,0.44,0.51,0.72,0.96,0.83C175,39.25,175.26,39.26,175.5,39.2z"/>
	<path class="st5" d="M184.63,37.33c0.46-0.4,0.99-0.65,1.58-0.74c0.6-0.09,1.2-0.05,1.82,0.13c1.05,0.31,1.77,0.84,2.16,1.59
		c0.4,0.75,0.45,1.62,0.15,2.61c-0.21,0.71-0.55,1.27-1.01,1.67c-0.46,0.4-0.99,0.65-1.58,0.74c-0.59,0.09-1.2,0.04-1.82-0.15
		c-1.04-0.31-1.76-0.84-2.16-1.59c-0.4-0.75-0.45-1.62-0.16-2.62C183.83,38.28,184.17,37.73,184.63,37.33z M188.39,40.47
		c0.25-0.85,0.33-1.53,0.24-2.05c-0.09-0.51-0.39-0.84-0.9-0.99c-0.96-0.29-1.69,0.38-2.17,2.01c-0.25,0.85-0.33,1.54-0.22,2.05
		c0.1,0.52,0.41,0.85,0.92,1C187.19,42.77,187.91,42.1,188.39,40.47z"/>
	<path class="st5" d="M193.23,39.66l-0.72-0.47l0.26-0.76l2.12,0.47l0.04,0.01l0.23,0.33l-0.15,0.43l-0.1,0.26
		c0.37-0.15,0.82-0.23,1.33-0.25c0.52-0.02,1.01,0.05,1.48,0.21c0.5,0.17,0.86,0.39,1.09,0.65c0.23,0.26,0.34,0.59,0.34,0.99
		c0,0.4-0.1,0.9-0.31,1.5l-1.05,3.06l0.72,0.35l-0.23,0.66l-3.17-1.09l0.23-0.66l0.7,0.14l1.05-3.06c0.13-0.38,0.21-0.69,0.22-0.93
		s-0.03-0.43-0.15-0.58c-0.12-0.15-0.32-0.27-0.59-0.37c-0.47-0.16-1.03-0.15-1.69,0.03l-1.38,4.03l0.7,0.35l-0.23,0.66l-3.21-1.1
		l0.23-0.66l0.75,0.14L193.23,39.66z"/>
	<path class="st5" d="M200.38,47.06c-0.3-0.77-0.27-1.64,0.11-2.61c0.25-0.65,0.61-1.17,1.06-1.55c0.46-0.38,0.98-0.6,1.57-0.66
		s1.21,0.03,1.86,0.28c0.81,0.31,1.36,0.74,1.65,1.29c0.29,0.55,0.3,1.18,0.05,1.89c-0.19,0.48-0.36,0.82-0.51,1.03l-3.94-1.52
		c-0.22,0.67-0.25,1.26-0.08,1.75s0.55,0.85,1.13,1.07c0.32,0.12,0.66,0.2,1.03,0.24c0.37,0.04,0.68,0.02,0.92-0.03l0.07,0.72
		c-0.3,0.13-0.73,0.18-1.29,0.17c-0.56-0.01-1.09-0.11-1.59-0.31C201.36,48.42,200.68,47.83,200.38,47.06z M204.82,45.47
		c0.09-0.2,0.16-0.35,0.21-0.46c0.37-0.97,0.2-1.59-0.52-1.87c-0.4-0.15-0.76-0.13-1.09,0.07c-0.33,0.2-0.64,0.65-0.94,1.35
		L204.82,45.47z"/>
</g>
</svg>
